<svg width="32" height="32" viewBox="0 0 32 32" fill="none" xmlns="http://www.w3.org/2000/svg">
<path fill-rule="evenodd" clip-rule="evenodd" d="M19.7703 7.36486C19.7703 10.0517 21.9483 12.2297 24.6351 12.2297C27.3219 12.2297 29.5 10.0517 29.5 7.36486C29.5 4.67807 27.3219 2.5 24.6351 2.5C21.9483 2.5 19.7703 4.67807 19.7703 7.36486ZM17.8319 7.04054C17.8528 6.59561 17.9163 6.16184 18.0186 5.74324H9.39201C7.24251 5.74324 5.5 7.48615 5.5 9.63525V22.608C5.5 24.7575 7.2429 26.5 9.39201 26.5H22.3648C24.5142 26.5 26.2568 24.7571 26.2568 22.608V13.9814C25.8382 14.0837 25.4044 14.1472 24.9595 14.1681V22.608C24.9595 24.0408 23.7976 25.2027 22.3648 25.2027H9.39201C7.95923 25.2027 6.7973 24.0409 6.7973 22.608V9.63525C6.7973 8.20247 7.95914 7.04054 9.39201 7.04054H17.8319Z" fill="white"/>
</svg>
