<svg width="22" height="16" viewBox="0 0 22 16" fill="none" xmlns="http://www.w3.org/2000/svg">
<path d="M20.9453 2.86133C20.7109 1.92383 19.9688 1.18164 19.0703 0.947266C17.3906 0.478516 10.75 0.478516 10.75 0.478516C10.75 0.478516 4.07031 0.478516 2.39062 0.947266C1.49219 1.18164 0.75 1.92383 0.515625 2.86133C0.046875 4.50195 0.046875 8.01758 0.046875 8.01758C0.046875 8.01758 0.046875 11.4941 0.515625 13.1738C0.75 14.1113 1.49219 14.8145 2.39062 15.0488C4.07031 15.4785 10.75 15.4785 10.75 15.4785C10.75 15.4785 17.3906 15.4785 19.0703 15.0488C19.9688 14.8145 20.7109 14.1113 20.9453 13.1738C21.4141 11.4941 21.4141 8.01758 21.4141 8.01758C21.4141 8.01758 21.4141 4.50195 20.9453 2.86133ZM8.5625 11.1816V4.85352L14.1094 8.01758L8.5625 11.1816Z" fill="#8492A6"/>
</svg>
