<svg width="32" height="32" viewBox="0 0 32 32" fill="none" xmlns="http://www.w3.org/2000/svg">
<path fill-rule="evenodd" clip-rule="evenodd" d="M3.5 6.5C2.39543 6.5 1.5 7.39543 1.5 8.5V23.5C1.5 24.6046 2.39543 25.5 3.5 25.5H28.5C29.6046 25.5 30.5 24.6046 30.5 23.5V8.5C30.5 7.39543 29.6046 6.5 28.5 6.5H3.5ZM8.73438 10.125H7.65625H6.75H5.67969V21.5H8.01562V18.2656L7.78241 12.9828L10.8594 21.5H12.4531L15.5301 12.9828L15.2969 18.2656V21.5H17.6406V10.125H16.5625H15.6562H14.5781L11.6562 18.4766L8.73438 10.125ZM27.0078 21.5V19.6719H22.0391V10.125H19.6953V21.5H21.2812H22.0391H27.0078Z" fill="white"/>
</svg>
